<svg xmlns="http://www.w3.org/2000/svg" xml:space="preserve" width="512" height="512"><mask id="a"><circle cx="256" cy="256" r="256" fill="#fff"/></mask><g mask="url(#a)"><path fill="#d80027" d="M0 0h512v512H0z"/></g><path d="m273.062 103.147 12.18 13.264c5.826 6.374 11.122 13.357 11.946 15.326 12.088 15.095 21.526 31.556 27.765 49.03 8.466 26.048 8.48 47.624 1.278 69.234l-61.227-61.227 30.613-30.614-66.629-23.41-81.035 81.036 45.02 45.02 27.011-27.012 61.227 61.226c-.742 1.109-8.672 3.515-17.952 5.669-21.666 5.028-48.388-1.708-72.658-12.355-7.569-3.32-26.586-14.863-28.242-14.923-21.381 21.343-50.422 50.422-50.422 50.422l45.02 45.02 32.414-32.415 9.058 3.865c28.906 14.252 44.648 15.895 62.41 16.044 16.957.142 38.983-4.948 55.6-13.51l7.99-4.598 30.614 30.614c12.99-12.439 33.25-31.426 45.02-45.02l-30.613-30.614 4.814-9.841c6.085-12.07 10.478-25.922 11.475-46.25 1.338-27.26-2.38-45.876-12.293-67.182-13.885-29.847-52.148-57.634-88.996-64.633z" style="fill:#ffda44;fill-opacity:1;stroke-width:2.5467"/></svg>